<svg width="34" height="32" viewBox="0 0 34 32" fill="none" xmlns="http://www.w3.org/2000/svg">
<ellipse cx="17.5" cy="16" rx="15.5" ry="16" fill="#DD6767"/>
<path d="M23.1875 20.1846L23.2109 19.3877C23.2266 18.8877 23.2734 18.3409 23.3516 17.7471L23.5391 16.3643C23.5781 16.0362 23.6172 15.7393 23.6562 15.4737C22.9141 16.2862 22.3164 16.919 21.8633 17.3721L20.5156 18.6846C17.5 21.5049 15.7031 22.9151 15.125 22.9151C14.2734 22.9151 13.3789 22.7315 12.4414 22.3643C11.9336 22.1612 11.6445 21.9502 11.5742 21.7315C11.4648 21.458 11.4102 21.0869 11.4102 20.6182C11.4102 20.1416 11.4258 19.7041 11.457 19.3057C11.4883 18.9073 11.5273 18.5127 11.5742 18.1221C11.6211 17.7237 11.668 17.3448 11.7148 16.9854C11.7695 16.6182 11.8125 16.2979 11.8438 16.0244C11.9219 15.4073 11.9375 15.0987 11.8906 15.0987L7.53125 20.4541C5.47656 22.8682 4.30859 24.2041 4.02734 24.4619C3.42578 25.0088 2.76172 25.2823 2.03516 25.2823C1.67578 25.2823 1.37891 25.1924 1.14453 25.0127C0.910156 24.833 0.792969 24.6104 0.792969 24.3448C0.792969 23.8135 1.01562 23.2588 1.46094 22.6807L11.8672 9.45023L13.0859 7.98538C14.5391 6.27444 15.4922 5.41898 15.9453 5.41898C16.5781 5.41898 17.1797 5.57913 17.75 5.89944C18.2578 6.18069 18.5469 6.45413 18.6172 6.71976C18.6484 6.82132 18.582 7.29398 18.418 8.13773L18.0078 10.3526C17.5469 12.8213 17.3164 14.4151 17.3164 15.1338C17.3164 15.8448 17.3984 16.2002 17.5625 16.2002C18.0938 16.2002 19.1172 15.3291 20.6328 13.5869L24.4297 9.04007C25.2656 8.07913 25.8203 7.53226 26.0938 7.39944C26.1719 7.36038 26.2852 7.34085 26.4336 7.34085C26.582 7.34085 26.7461 7.36038 26.9258 7.39944C27.1133 7.43851 27.3008 7.48929 27.4883 7.55179C27.6836 7.61429 27.8711 7.68851 28.0508 7.77444C28.2305 7.86038 28.3906 7.95023 28.5312 8.04398C28.8359 8.2471 28.9844 8.41507 28.9766 8.54788C28.9766 8.67288 28.9453 8.95023 28.8828 9.37991C28.8203 9.80179 28.7422 10.3174 28.6484 10.9268C28 14.9659 27.6602 17.3096 27.6289 17.958C27.6055 18.6065 27.6719 19.0127 27.8281 19.1768C27.9922 19.3409 28.2305 19.4229 28.543 19.4229C29.1133 19.4229 29.9414 19.083 31.0273 18.4034C31.7617 17.9424 32.3672 17.7119 32.8438 17.7119C33.3281 17.7119 33.5703 17.9424 33.5703 18.4034C33.5703 18.8799 33.3125 19.458 32.7969 20.1377C32.0547 21.1221 30.9453 22.0127 29.4688 22.8096C28.2266 23.4737 27.0469 23.8057 25.9297 23.8057C24.1016 23.8057 23.1875 22.5987 23.1875 20.1846Z" fill="white"/>
</svg>
