<svg width="27" height="28" viewBox="0 0 27 28" fill="none" xmlns="http://www.w3.org/2000/svg">
<path d="M23.5365 15.0537C23.588 14.625 23.6222 14.1792 23.6222 13.7163C23.6222 13.2534 23.5879 12.8076 23.5194 12.379L26.4169 10.1158C26.6741 9.91004 26.7427 9.53284 26.5884 9.24137L23.8451 4.4921C23.6737 4.18348 23.3136 4.08061 23.005 4.18348L19.5931 5.55511C18.873 5.00646 18.1186 4.56068 17.2784 4.21777L16.7641 0.582944C16.7126 0.240036 16.4212 0 16.0783 0H10.5917C10.2488 0 9.9745 0.240036 9.92307 0.582944L9.4087 4.21777C8.56858 4.56068 7.79704 5.0236 7.09407 5.55511L3.68214 4.18348C3.37352 4.06346 3.01347 4.18348 2.84201 4.4921L0.0987495 9.24137C-0.0727045 9.54999 -0.00412263 9.91004 0.270204 10.1158L3.16778 12.379C3.0992 12.8076 3.04776 13.2705 3.04776 13.7163C3.04776 14.1621 3.08205 14.625 3.15063 15.0537L0.253058 17.3169C-0.00412304 17.5226 -0.0727045 17.8998 0.0816042 18.1913L2.82487 22.9405C2.99632 23.2492 3.35638 23.352 3.66499 23.2492L7.07693 21.8775C7.79704 22.4262 8.55143 22.872 9.39156 23.2149L9.90592 26.8497C9.9745 27.1926 10.2488 27.4326 10.5917 27.4326H16.0783C16.4212 27.4326 16.7126 27.1926 16.7469 26.8497L17.2613 23.2149C18.1014 22.872 18.873 22.409 19.5759 21.8775L22.9879 23.2492C23.2965 23.3692 23.6565 23.2492 23.828 22.9405L26.5713 18.1913C26.7427 17.8827 26.6741 17.5226 26.3998 17.3169L23.5365 15.0537ZM13.335 18.8599C10.506 18.8599 8.19138 16.5453 8.19138 13.7163C8.19138 10.8873 10.506 8.5727 13.335 8.5727C16.164 8.5727 18.4786 10.8873 18.4786 13.7163C18.4786 16.5453 16.164 18.8599 13.335 18.8599Z" fill="white"/>
</svg>
